# xmcd CD database file
#
# Track frame offsets:
#	150
#	30542
#	71775
#	106305
#	124839
#	158808
#	191187
#	217552
#	251794
#
# Disc length: 3615 seconds
#
# Revision: 0
# Processed by: cddbd v1.5.2PL0 Copyright (c) Steve Scherf et al.
# Submitted via: CDex 1.70beta2
#
DISCID=7c0e1d09
DTITLE=Tim Lapthorn - Seventh Sense
DYEAR=2006
DGENRE=Jazz
TTITLE0=Bright Mississippi
TTITLE1=Seventh Sense
TTITLE2=Come Rain Or Shine
TTITLE3=The Bark And The Bite
TTITLE4=Skylark
TTITLE5=Laurie
TTITLE6=Walking Wounded
TTITLE7=If I Should Lose You
TTITLE8=I'm In The Mood For Love
EXTD=YEAR: 2006
EXTT0=
EXTT1=
EXTT2=
EXTT3=
EXTT4=
EXTT5=
EXTT6=
EXTT7=
EXTT8=
PLAYORDER=
